<?xml version="1.0" standalone="no"?>
<!DOCTYPE svg PUBLIC "-//W3C//DTD SVG 20010904//EN"
 "http://www.w3.org/TR/2001/REC-SVG-20010904/DTD/svg10.dtd">
<svg version="1.0" xmlns="http://www.w3.org/2000/svg"
 width="256.000000pt" height="150.000000pt" viewBox="0 0 256.000000 150.000000"
 preserveAspectRatio="xMidYMid meet">
<metadata>
Created by potrace 1.10, written by Peter Selinger 2001-2011
</metadata>
<g transform="translate(0.000000,150.000000) scale(0.100000,-0.100000)"
fill="#000000" stroke="none">
<path d="M804 1348 c-44 -32 -431 -417 -475 -471 -21 -27 -39 -58 -39 -70 0
-14 81 -102 247 -270 137 -137 261 -257 277 -267 40 -26 59 -15 179 108 95 97
110 125 85 150 -28 28 -60 13 -142 -68 -45 -44 -87 -80 -92 -80 -5 0 -105 96
-223 214 -185 185 -212 216 -203 232 6 11 103 111 216 223 l205 204 111 -106
c116 -112 141 -125 174 -88 13 14 15 24 8 38 -18 32 -268 273 -284 273 -8 0
-28 -10 -44 -22z m295 -277 c-6 -2 -66 51 -133 118 l-121 121 -248 -248 -247
-247 248 -248 247 -247 96 96 c60 60 102 95 113 93 12 -3 -16 -36 -96 -116
l-113 -113 -265 265 -265 265 265 265 265 265 133 -132 c72 -73 127 -135 121
-137z"/>
<path d="M774 955 c-25 -25 -25 -27 -22 -165 3 -130 5 -141 26 -162 22 -22 24
-22 52 -6 28 16 32 16 61 0 30 -17 30 -17 55 11 14 16 24 41 24 58 0 39 14 37
40 -6 23 -38 66 -75 85 -75 7 0 23 8 35 18 18 14 24 33 30 83 6 62 7 63 19 34
48 -118 80 -150 126 -125 23 12 31 26 71 115 l17 40 7 -64 c11 -98 21 -103
189 -99 l136 2 40 37 40 37 41 -37 c38 -36 43 -38 101 -36 73 2 89 13 100 68
8 41 9 42 57 48 40 4 55 12 82 42 28 30 34 45 34 82 0 38 -6 52 -34 83 -33 36
-36 37 -116 40 -52 3 -90 0 -105 -8 -17 -9 -28 -9 -44 -1 -26 14 -55 1 -87
-38 l-22 -25 -42 38 c-32 29 -47 36 -64 31 -11 -4 -30 -6 -41 -5 -11 1 -80 3
-154 4 -156 2 -168 -3 -199 -86 -11 -29 -24 -54 -30 -56 -6 -2 -19 20 -29 48
-28 79 -51 98 -120 95 -66 -3 -93 -26 -93 -79 l0 -31 -53 58 c-57 61 -70 66
-105 41 -20 -14 -24 -14 -44 0 -30 21 -35 20 -64 -9z m56 -160 c0 -138 -1
-145 -20 -145 -19 0 -20 7 -20 145 0 138 1 145 20 145 19 0 20 -7 20 -145z
m175 35 c39 -60 72 -110 75 -110 3 0 4 49 2 110 -3 105 -2 110 17 110 20 0 21
-5 21 -145 0 -139 -1 -145 -20 -145 -15 0 -40 30 -93 110 l-72 110 -3 -110
c-2 -102 -4 -110 -22 -110 -19 0 -20 7 -20 145 0 144 0 145 23 145 17 0 37
-23 92 -110z m229 -17 c36 -109 56 -148 56 -110 0 6 18 63 41 125 33 89 45
112 60 112 10 0 19 -1 19 -2 0 -2 -25 -66 -54 -143 -47 -120 -58 -140 -76
-140 -18 0 -29 20 -76 140 -29 77 -54 141 -54 143 0 2 10 2 22 0 18 -2 28 -23
62 -125z m416 110 c0 -16 -9 -18 -85 -15 l-85 3 0 -45 0 -46 80 0 c64 0 80 -3
80 -15 0 -12 -16 -15 -80 -15 l-80 0 0 -55 0 -55 90 0 c73 0 90 -3 90 -15 0
-12 -19 -15 -110 -15 l-110 0 0 145 0 145 105 0 c93 0 105 -2 105 -17z m121
-38 l36 -54 39 54 c28 39 46 55 62 55 22 0 20 -4 -21 -57 -24 -32 -47 -64 -51
-70 -4 -8 15 -43 49 -88 l55 -75 -27 0 c-23 0 -35 11 -67 61 -32 50 -42 58
-50 46 -6 -8 -26 -35 -43 -61 -21 -29 -40 -46 -53 -46 -11 0 -20 2 -20 5 0 3
23 36 50 72 28 36 50 70 50 75 0 5 -17 32 -38 61 -56 76 -56 77 -30 77 17 0
33 -15 59 -55z m373 44 c49 -23 58 -97 16 -139 -16 -16 -34 -20 -85 -20 l-65
0 0 -60 c0 -53 -2 -60 -20 -60 -19 0 -20 7 -20 145 l0 145 75 0 c41 0 85 -5
99 -11z m-435 -90 l23 -41 -29 -41 c-17 -23 -36 -41 -42 -39 -7 1 -39 5 -71 9
-69 7 -70 23 -3 23 48 0 83 20 83 47 0 7 -7 25 -16 38 -9 13 -13 29 -9 35 14
22 42 9 64 -31z m219 -40 c-3 -37 -16 -41 -35 -12 -10 15 -10 23 3 42 21 29
37 15 32 -30z"/>
<path d="M2010 855 l0 -55 53 0 c40 0 58 5 70 18 41 45 3 92 -73 92 l-50 0 0
-55z"/>
</g>
</svg>
