<?xml version="1.0" standalone="no"?>
<!DOCTYPE svg PUBLIC "-//W3C//DTD SVG 20010904//EN"
 "http://www.w3.org/TR/2001/REC-SVG-20010904/DTD/svg10.dtd">
<svg version="1.0" xmlns="http://www.w3.org/2000/svg"
 width="100.000000pt" height="50.000000pt" viewBox="0 0 300.000000 193.000000"
 preserveAspectRatio="xMidYMid meet">
<metadata>
Created by potrace 1.10, written by Peter Selinger 2001-2011
</metadata>
<g transform="translate(0.000000,193.000000) scale(0.100000,-0.100000)"
fill="#000000" stroke="none">
<path d="M630 1365 l-385 -385 388 -387 387 -388 277 277 c152 153 274 281
270 285 -4 4 -129 -114 -277 -262 l-270 -270 -370 370 c-204 203 -370 373
-370 376 0 3 167 172 370 375 l370 369 263 -262 c144 -145 268 -263 275 -263
8 0 12 3 10 8 -5 10 -543 542 -548 542 -3 0 -178 -173 -390 -385z"/>
<path d="M996 983 c1 -100 4 -118 18 -121 14 -3 16 11 16 117 0 109 -2 121
-17 121 -16 0 -18 -12 -17 -117z"/>
<path d="M1080 980 c0 -99 3 -120 15 -120 11 0 15 19 17 93 l3 92 60 -92 c84
-131 95 -127 95 27 0 115 -1 120 -21 120 -20 0 -20 -3 -13 -91 4 -54 3 -90 -2
-86 -5 3 -34 44 -64 91 -79 123 -90 119 -90 -34z"/>
<path d="M1337 980 c33 -85 50 -120 62 -120 11 0 28 32 56 108 50 134 50 132
32 132 -10 0 -25 -29 -43 -77 -15 -43 -32 -89 -37 -103 -8 -22 -13 -14 -44 78
-27 79 -39 102 -53 102 -16 0 -12 -14 27 -120z"/>
<path d="M1530 980 l0 -120 91 0 c79 0 90 2 87 17 -2 14 -15 16 -75 14 l-73
-2 0 40 0 41 65 0 c51 0 65 3 65 15 0 12 -14 15 -65 15 l-65 0 0 35 0 35 70 0
c56 0 70 3 70 15 0 12 -16 15 -85 15 l-85 0 0 -120z"/>
<path d="M1747 983 c1 -103 4 -118 19 -122 15 -3 16 6 12 88 -3 50 -3 91 1 91
3 0 32 -41 63 -90 79 -124 88 -121 88 30 0 99 -3 120 -15 120 -11 0 -15 -19
-17 -91 l-3 -91 -58 91 c-82 127 -93 124 -90 -26z"/>
<path d="M1960 1085 c0 -11 11 -15 40 -15 l40 0 0 -105 c0 -87 3 -105 15 -105
12 0 15 18 15 105 l0 105 40 0 c29 0 40 4 40 15 0 12 -17 15 -95 15 -78 0 -95
-3 -95 -15z"/>
<path d="M2180 980 l0 -121 87 3 c58 2 88 7 91 16 3 9 -16 12 -72 12 l-76 0 0
40 0 40 65 0 c51 0 65 3 65 15 0 12 -14 15 -65 15 l-65 0 0 35 0 35 70 0 c56
0 70 3 70 15 0 12 -16 15 -85 15 l-85 0 0 -120z"/>
<path d="M2420 1045 c44 -59 44 -58 -5 -120 -46 -58 -49 -65 -26 -65 13 0 31
18 52 50 18 28 35 50 38 50 3 0 19 -23 36 -50 18 -30 36 -50 47 -50 26 0 23 8
-22 68 -22 29 -40 56 -40 61 0 5 18 31 41 60 36 45 38 51 20 51 -13 0 -30 -15
-47 -40 -15 -22 -30 -40 -34 -40 -4 0 -19 18 -34 40 -16 25 -34 40 -46 40 -18
0 -16 -7 20 -55z"/>
<path d="M2610 980 c0 -100 3 -120 15 -120 11 0 15 12 15 50 l0 50 49 0 c61 0
101 28 101 71 0 50 -30 69 -110 69 l-70 0 0 -120z m140 75 c10 -12 10 -21 2
-40 -10 -22 -18 -25 -62 -25 l-50 0 0 40 0 40 49 0 c31 0 53 -5 61 -15z"/>
</g>
</svg>
