 <svg  version="1.0" xmlns="http://www.w3.org/2000/svg"  
 width="160.000000pt" height="70.000000pt" viewBox="0 0 256.000000 150.000000"  
 preserveAspectRatio="xMidYMid meet">  
 <g transform="translate(0.000000,150.000000) scale(0.100000,-0.100000)" fill="#ffffff" 
 stroke="none"> 
 <path d="M564 1098 c-151 -150 -274 -279 -274 -286 0 -21 535 -552 555 -552 20 0 215 187 236 227 12 22 11 27 -6 39 -10 8 -25 14 -32 14 -7 0 -54 -40 -105 -90 -51 -49 -95 -90 -98 -90 -3 0 -106 101 -230 225 l-225 225 225 225 c124 124 229 225 235 225 6 0 60 -49 120 -110 60 -60 117 -110 126 -110 9 0 24 9 34 20 17 19 14 23 -116 156 -74 75 -142 140 -153 146 -16 9 -56 -27 -292 -264z m535 -27 c-6 -2 -66 51 -133 118 l-121 121 -248 -248 -247 -247 248 -248 247 -247 96 96 c60 60 102 95 113 93 12 -3 -16 -36 -96 -116 l-113 -113 -265 265 -265 265 265 265 265 265 133 -132 c72 -73 127 -135 121 -137z"/> 
 <path d="M777 952 c-14 -15 -17 -42 -17 -159 0 -123 2 -142 18 -156 23 -21 41 -21 64 0 17 15 19 15 36 0 44 -40 80 -7 84 77 l3 58 50 -73 c54 -80 81 -95 116 -63 16 15 19 32 19 118 l1 101 40 -105 c48 -123 52 -130 90 -130 34 0 34 0 86 130 l42 105 0 -101 c1 -138 -3 -136 182 -132 l143 3 31 42 c16 23 35 42 40 42 6 1 19 -13 29 -29 25 -44 54 -58 116 -58 68 0 90 17 90 68 l0 37 52 7 c39 6 59 15 85 41 28 28 33 40 33 80 0 40 -5 52 -34 81 -33 33 -36 34 -117 34 -46 0 -90 -4 -98 -9 -7 -5 -26 -4 -43 3 -29 10 -32 9 -70 -34 l-40 -44 -35 42 c-35 43 -68 53 -91 30 -9 -9 -15 -9 -24 0 -16 16 -210 16 -225 1 -8 -8 -13 -8 -17 0 -11 17 -41 13 -58 -6 -9 -10 -29 -53 -44 -95 -16 -43 -32 -78 -35 -78 -3 0 -11 19 -18 43 -27 88 -53 137 -77 143 -14 4 -31 1 -38 -5 -10 -8 -16 -9 -21 -1 -3 5 -14 10 -24 10 -32 0 -50 -32 -53 -94 l-3 -58 -50 73 c-54 80 -81 95 -116 63 -18 -16 -20 -16 -37 -1 -24 22 -45 21 -65 -1z m53 -157 c0 -138 -1 -145 -20 -145 -19 0 -20 7 -20 145 0 138 1 145 20 145 19 0 20 -7 20 -145z m165 50 c97 -154 91 -152 87 -20 -4 111 -3 115 17 115 20 0 21 -5 21 -145 0 -139 -1 -145 -20 -145 -15 0 -40 30 -93 110 l-72 110 -3 -110 c-2 -102 -4 -110 -22 -110 -19 0 -20 7 -20 145 0 144 0 145 23 144 17 0 36 -22 82 -94z m239 -32 c36 -109 56 -148 56 -110 0 6 19 63 41 125 34 90 46 112 62 112 11 0 17 -5 14 -12 -3 -7 -28 -73 -57 -146 -69 -176 -73 -175 -146 13 -29 77 -54 141 -54 143 0 2 10 2 22 0 18 -2 28 -23 62 -125z m416 112 c0 -12 -16 -15 -85 -15 l-85 0 0 -45 0 -45 80 0 c64 0 80 -3 80 -15 0 -12 -16 -15 -80 -15 l-80 0 0 -55 0 -55 90 0 c73 0 90 -3 90 -15 0 -12 -19 -15 -110 -15 l-110 0 0 145 0 145 105 0 c87 0 105 -3 105 -15z m121 -40 l36 -54 39 54 c28 39 46 55 62 55 22 0 20 -4 -21 -57 -24 -32 -47 -63 -51 -70 -6 -11 42 -89 88 -140 l19 -23 -26 0 c-20 0 -35 13 -67 58 -23 31 -44 55 -48 53 -4 -3 -24 -29 -45 -58 -24 -33 -45 -53 -58 -53 -10 0 -19 2 -19 5 0 3 23 36 50 72 28 36 50 70 50 74 0 4 -21 38 -46 74 -43 62 -44 65 -22 65 17 0 33 -15 59 -55z m372 44 c25 -11 47 -47 47 -74 0 -27 -22 -63 -47 -74 -13 -6 -48 -11 -78 -11 l-55 0 0 -60 c0 -53 -2 -60 -20 -60 -19 0 -20 7 -20 145 l0 145 75 0 c41 0 85 -5 98 -11z m-425 -79 l33 -51 -37 -47 c-19 -26 -40 -47 -45 -46 -5 1 -43 2 -84 3 -68 1 -75 3 -75 21 0 18 7 20 59 20 65 0 91 15 91 54 0 36 -20 46 -87 46 -35 0 -63 4 -63 10 0 6 28 10 63 10 40 0 70 5 83 15 10 8 21 14 24 15 3 0 20 -23 38 -50z m212 -52 l0 -92 -34 49 -35 48 32 43 c18 24 33 43 35 44 1 0 2 -41 2 -92z"/> 
 <path d="M2010 855 l0 -55 53 0 c58 0 87 19 87 57 0 34 -32 53 -88 53 l-52 0 0 -55z m100 -5 c0 -16 -7 -20 -35 -20 -28 0 -35 4 -35 20 0 16 7 20 35 20 28 0 35 -4 35 -20z"/> </g> </svg> 